<!-- Generator: Adobe Illustrator 19.0.0, SVG Export Plug-In  -->
<svg version="1.1"
	 xmlns="http://www.w3.org/2000/svg" xmlns:xlink="http://www.w3.org/1999/xlink" xmlns:a="http://ns.adobe.com/AdobeSVGViewerExtensions/3.0/"
	 x="0px" y="0px" width="72px" height="84.0648px" viewBox="0 0 72 84.0648" style="enable-background:new 0 0 72 84.0648;"
	 xml:space="preserve">
<style type="text/css">
	.st0{fill:#E30016;}
</style>
<defs>
</defs>
<path id="XMLID_15_" class="st0" d="M19.0166,84.0648c-0.6545,0-1.2156-0.374-1.3091-1.0285L0.0351,17.2087
	c-0.0935-0.4675,0-0.9351,0.2805-1.3091c0.2805-0.374,7.1999-8.4155,16.0829-10.7531c4.6753-1.2156,9.444,0.0935,14.0258,1.4026
	c4.4882,1.2156,8.696,2.4311,12.6232,1.4026c8.2284-2.2441,15.4283-7.6674,15.5218-7.6674c0.374-0.2805,0.8415-0.374,1.3091-0.187
	c0.4675,0.187,0.748,0.4675,0.9351,0.9351l11.1271,41.6098c0.187,0.561-0.0935,1.1221-0.4675,1.4961
	c-0.2805,0.2805-7.7609,5.7973-16.4569,8.1349c-4.6753,1.2156-9.444-0.0935-14.0258-1.4026
	c-4.4882-1.2156-8.696-2.4311-12.6232-1.4026c-2.8987,0.748-5.9843,2.3376-9.07,4.7688c-0.6545,0.4675-1.4961,0.374-1.9636-0.2805
	c-0.4675-0.6545-0.374-1.4961,0.2805-1.9636c3.3662-2.6181,6.7324-4.3012,10.0985-5.2363c4.6753-1.2156,9.444,0.0935,14.0258,1.4026
	c4.4882,1.2156,8.696,2.4311,12.6232,1.4026c6.6389-1.7766,12.7167-5.7038,14.7738-7.1064L58.5692,3.6505
	c-2.7117,1.8701-8.4155,5.2363-14.7738,7.0129c-4.6753,1.2156-9.444-0.0935-14.0258-1.4026
	c-4.4882-1.2156-8.696-2.4311-12.6232-1.4026c-6.8259,1.8701-12.5297,7.5739-14.2128,9.3505l17.3919,65.0795
	c0.187,0.748-0.2805,1.4961-1.0286,1.6831C19.2036,84.0648,19.1101,84.0648,19.0166,84.0648z"/>
</svg>
