<!-- Generator: Adobe Illustrator 19.0.0, SVG Export Plug-In  -->
<svg version="1.1"
	 xmlns="http://www.w3.org/2000/svg" xmlns:xlink="http://www.w3.org/1999/xlink" xmlns:a="http://ns.adobe.com/AdobeSVGViewerExtensions/3.0/"
	 x="0px" y="0px" width="48.3158px" height="72px" viewBox="0 0 48.3158 72" style="enable-background:new 0 0 48.3158 72;"
	 xml:space="preserve">
<style type="text/css">
	.st0{fill:#F9ED32;}
</style>
<defs>
</defs>
<g id="XMLID_15_">
	<path id="XMLID_16_" class="st0" d="M35.7158,61.7684c-1.7053-0.3789-3.8842-0.7579-6.3474-0.9474
		C36,52.4842,48.3158,35.4316,48.3158,24.1579C48.3158,10.8,37.5158,0,24.1579,0S0,10.8,0,24.1579
		C0,35.4316,12.3158,52.4842,18.9474,60.821c-2.3684,0.1895-4.6421,0.4737-6.3474,0.8526C11.0842,62.0526,7.1053,63,7.1053,66.3158
		c0,3.5053,4.6421,4.4526,6.4421,4.8316C16.3895,71.7158,20.1789,72,24.1579,72s7.7684-0.2842,10.6105-0.8526
		c1.8-0.379,6.4421-1.3263,6.4421-4.8316C41.2105,63,37.0421,62.0526,35.7158,61.7684z M24.1579,2.8421
		c11.7474,0,21.3158,9.5684,21.3158,21.3158c0,12.3158-16.8632,33.2526-21.3158,38.5579
		C19.7053,57.4105,2.8421,36.4737,2.8421,24.1579C2.8421,12.4105,12.4105,2.8421,24.1579,2.8421z M24.1579,69.1579
		c-7.8632,0-14.2105-1.2316-14.2105-2.8421c0-1.3263,4.8316-2.4632,11.1789-2.7474c1.0421,1.3263,1.8,2.0842,1.8947,2.2737
		c0.2842,0.2842,0.6632,0.4737,1.0421,0.4737c0.3789,0,0.7579-0.1895,1.0421-0.4737c0.1895-0.1895,0.8526-0.9474,1.8947-2.2737
		c6.5368,0.2842,11.3684,1.4211,11.3684,2.7474C38.3684,67.9263,32.0211,69.1579,24.1579,69.1579z M24.1579,41.2105
		c-9.3789,0-17.0526-7.6737-17.0526-17.0526S14.7789,7.1053,24.1579,7.1053s17.0526,7.6737,17.0526,17.0526
		S33.5368,41.2105,24.1579,41.2105z M24.1579,9.9474c-7.8632,0-14.2105,6.3474-14.2105,14.2105s6.3474,14.2105,14.2105,14.2105
		s14.2105-6.3474,14.2105-14.2105S32.0211,9.9474,24.1579,9.9474z M24.1579,34.1053c-5.4947,0-9.9474-4.4526-9.9474-9.9474
		s4.4526-9.9474,9.9474-9.9474s9.9474,4.4526,9.9474,9.9474S29.6526,34.1053,24.1579,34.1053z M24.1579,17.0526
		c-3.8842,0-7.1053,3.2211-7.1053,7.1053s3.2211,7.1053,7.1053,7.1053s7.1053-3.2211,7.1053-7.1053S28.0421,17.0526,24.1579,17.0526
		z M27,24.1579C27,25.7684,25.7684,27,24.1579,27s-2.8421-1.2316-2.8421-2.8421s1.2316-2.8421,2.8421-2.8421S27,22.5474,27,24.1579z
		"/>
</g>
</svg>
