<!-- Generator: Adobe Illustrator 19.0.0, SVG Export Plug-In  -->
<svg version="1.1"
	 xmlns="http://www.w3.org/2000/svg" xmlns:xlink="http://www.w3.org/1999/xlink" xmlns:a="http://ns.adobe.com/AdobeSVGViewerExtensions/3.0/"
	 x="0px" y="0px" width="72px" height="80px" viewBox="0 0 72 80" style="enable-background:new 0 0 72 80;" xml:space="preserve">
<style type="text/css">
	.st0{fill:#2BB673;}
</style>
<defs>
</defs>
<g id="XMLID_15_">
	<path id="XMLID_31_" class="st0" d="M50.5778,22.2222c-3.6444-3.9111-8.8889-6.0444-14.6667-6.0444s-10.9333,2.1333-14.6667,6.0444
		c-3.5556,3.7333-5.5111,8.9778-5.5111,14.6667c0,7.0222,3.1111,11.4667,5.8667,15.4667c2.2222,3.1111,4.0889,5.8667,4.0889,9.1556
		c0,1.7778,1.3333,3.3778,4,4.4444c1.8667,0.8,4.2667,1.3333,6.2222,1.3333l0,0l0,0c1.9556,0,4.3556-0.5333,6.2222-1.3333
		c2.5778-1.0667,4-2.6667,4-4.4444c0-3.3778,1.8667-6.0444,4.0889-9.1556c2.7556-4,5.8667-8.4444,5.8667-15.4667
		C56.0889,31.2,54.1333,26.0444,50.5778,22.2222z M42.8444,37.2444c-0.4444-0.3556-1.0667-0.2667-1.3333,0.1778
		c-5.0667,6.3111-6.4889,13.8667-6.9333,19.1111c0,0.1778,0,0.3556,0,0.5333c-0.3556-0.8889-0.7111-1.9556-0.9778-3.1111
		c-0.9778-3.5556-1.6-8.8,0.8889-13.5111c2.0444-3.8222,4.9778-6.7556,8.6222-8.6222c1.7778-0.8889,3.2889-1.2444,4.1778-1.5111
		c0.5333,2.4889,1.6,9.8667-1.9556,16.7111c-2.3111,4.3556-6.4889,9.3333-8.8,11.8222c0-0.7111,0.0889-1.5111,0.0889-2.3111
		c0.3556-4.9778,1.7778-12.0889,6.4889-18.0444C43.2889,38.2222,43.2,37.6,42.8444,37.2444z M31.0222,44.6222
		c-1.3333-2.6667-2.4-3.4667-2.5778-3.6444C28,40.7111,27.3778,40.8,27.1111,41.2444c-0.2667,0.4444-0.1778,1.0667,0.2667,1.3333
		c0,0,1.6889,1.3333,3.3778,6.2222c0,0.0889,0.0889,0.1778,0.0889,0.1778c0.0889,1.7778,0.3556,3.6444,0.8889,5.5111
		c0.0889,0.1778,0.0889,0.4444,0.1778,0.6222C28.0889,50.9333,23.3778,44.3556,24,37.7778c4.7111-0.8,7.4667,1.4222,8.4444,2.4
		C31.7333,41.6889,31.2889,43.1111,31.0222,44.6222z M48.6222,51.2889C46.3111,54.5778,44.1778,57.6,44.1778,61.6
		c0,1.3333-1.9556,2.3111-2.7556,2.6667C40,64.8889,38.3111,65.2444,36.8,65.4222c-0.0889-0.7111-0.2667-1.9556-0.2667-3.4667
		c1.3333-1.4222,7.4667-8,10.4889-13.7778C51.7333,39.2,49.0667,29.6,48.9778,29.1556s-0.5333-0.7111-1.0667-0.7111
		c-0.0889,0-2.4889,0.2667-5.6,1.7778c-2.5778,1.2444-6.2222,3.7333-8.9778,8.3556c-1.6-1.4222-5.0667-3.5556-10.4889-2.4
		c-0.3556,0.0889-0.7111,0.4444-0.7111,0.8c-0.6222,4.3556,0.7111,9.1556,4.0889,14.2222c2.4,3.6444,5.2444,6.5778,7.2889,8.5333
		c0.4444,0.9778,0.8,1.6,0.9778,1.9556c0.0889,1.6,0.1778,2.8444,0.2667,3.6444C33.3333,65.1556,31.7333,64.8,30.4,64.2667
		c-0.8-0.3556-2.7556-1.3333-2.7556-2.6667c0-4-2.1333-7.0222-4.4444-10.3111c-2.7556-3.9111-5.6-8-5.6-14.3111
		c0-5.1556,1.7778-9.8667,4.9778-13.3333c3.3778-3.5556,7.9111-5.4222,13.2444-5.4222s9.8667,1.8667,13.2444,5.4222
		c3.2,3.3778,4.9778,8.1778,4.9778,13.3333C54.1333,43.2889,51.2889,47.3778,48.6222,51.2889z"/>
	<path id="XMLID_30_" class="st0" d="M43.9111,66.3111c-2.2222,1.6-4.9778,2.4889-8,2.4889c-3.0222,0-5.7778-0.8889-8.0889-2.4889
		c-0.4444-0.3556-1.0667-0.1778-1.3333,0.1778c-0.3556,0.4445-0.1778,1.0667,0.1778,1.3333
		c2.5778,1.8667,5.7778,2.9333,9.1556,2.9333s6.5778-0.9778,9.1556-2.8444c0.4444-0.3556,0.5333-0.8889,0.1778-1.3333
		C44.9778,66.1333,44.3556,66.0444,43.9111,66.3111z"/>
	<path id="XMLID_29_" class="st0" d="M43.9111,69.7778C41.8667,71.2889,39.2,72,35.9111,72c-3.2889,0-5.9556-0.7111-8.0889-2.2222
		c-0.4444-0.3556-1.0667-0.1778-1.3333,0.1778c-0.3556,0.4445-0.1778,1.0667,0.1778,1.3333c2.4,1.7778,5.4222,2.6667,9.1556,2.6667
		s6.6667-0.8889,9.1556-2.5778c0.4444-0.3556,0.5333-0.8889,0.1778-1.3333C44.9778,69.5111,44.3556,69.4222,43.9111,69.7778z"/>
	<path id="XMLID_26_" class="st0" d="M43.9111,73.2444c-2.4,1.6889-5.4222,1.9556-8,1.9556c-2.5778,0-5.6-0.2667-8.0889-2.0444
		c-0.4444-0.3556-1.0667-0.1778-1.3333,0.1778c-0.3556,0.4444-0.1778,1.0667,0.1778,1.3333
		c1.6889,1.2444,3.6444,1.8667,5.5111,2.1333c0.2667,1.7778,1.7778,3.2,3.6444,3.2s3.3778-1.4222,3.6444-3.2
		c1.8667-0.2667,3.7333-0.8889,5.4222-2.1333c0.4444-0.3556,0.5333-0.8889,0.1778-1.3333
		C44.9778,72.9778,44.3556,72.8889,43.9111,73.2444z M35.9111,78.1333c-0.7111,0-1.3333-0.4445-1.6-1.0667c0.5333,0,1.0667,0,1.6,0
		c0.5333,0,1.0667,0,1.6,0C37.3333,77.6889,36.7111,78.1333,35.9111,78.1333z"/>
	<path id="XMLID_25_" class="st0" d="M32.6222,20.2667c-3.9111,0.7111-6.9333,2.5778-9.6889,5.9556
		c-0.3556,0.4444-0.2667,1.0667,0.1778,1.3333c0.1778,0.1778,0.3556,0.1778,0.6222,0.1778s0.5333-0.0889,0.8-0.3556
		c2.4-3.0222,5.0667-4.7111,8.4444-5.2444c0.5333-0.0889,0.8889-0.6222,0.8-1.1556C33.6889,20.5333,33.1556,20.1778,32.6222,20.2667
		z"/>
	<path id="XMLID_24_" class="st0" d="M34.5778,11.1111c0,0.3556,0.1778,0.7111,0.3556,0.8889
		c0.2667,0.2667,0.5333,0.3556,0.8889,0.3556S36.5333,12.1778,36.7111,12c0.2667-0.2667,0.3556-0.5333,0.3556-0.8889
		c0-0.3556-0.1778-0.7111-0.3556-0.8889c-0.1778-0.1778-0.3556-0.2667-0.5333-0.3556c0.5333-0.1778,0.8889-0.6222,0.8889-1.2444
		c0-0.5333-0.3556-1.0667-0.8889-1.2444c0.5333-0.1778,0.8889-0.6222,0.8889-1.2444c0-0.5333-0.3556-1.0667-0.8889-1.2444
		c0.5333-0.1778,0.8889-0.6222,0.8889-1.2444c0-0.5333-0.3556-1.0667-0.8889-1.2444c0.1778-0.0889,0.3556-0.1778,0.5333-0.3556
		c0.2667-0.2667,0.3556-0.5333,0.3556-0.8889s-0.1778-0.7111-0.3556-0.8889C36.5333,0.1778,36.1778,0,35.9111,0
		C35.5556,0,35.2,0.1778,35.0222,0.3556c-0.2667,0.2667-0.3556,0.5333-0.3556,0.8889s0.1778,0.7111,0.3556,0.8889
		C35.2,2.3111,35.3778,2.4,35.5556,2.4889c-0.5333,0.1778-0.8889,0.6222-0.8889,1.2444c0,0.5333,0.3556,1.0667,0.8889,1.2444
		C35.0222,5.1556,34.6667,5.6,34.6667,6.2222c0,0.5333,0.3556,1.0667,0.8889,1.2444c-0.5333,0.1778-0.8889,0.6222-0.8889,1.2444
		c0,0.5333,0.3556,1.0667,0.8889,1.2444c-0.1778,0.0889-0.3556,0.1778-0.5333,0.3556C34.7556,10.4,34.5778,10.7556,34.5778,11.1111z
		"/>
	<path id="XMLID_23_" class="st0" d="M16.1778,8.5333c0.0889,0,0.2667,0,0.3556-0.0889c-0.3556,0.4444-0.3556,1.0667-0.0889,1.5111
		c0.3556,0.4444,0.8889,0.7111,1.4222,0.5333c-0.3556,0.4444-0.3556,1.0667-0.0889,1.5111
		c0.3556,0.4444,0.8889,0.7111,1.4222,0.5333c-0.3556,0.4444-0.3556,1.0667-0.0889,1.5111
		c0.2667,0.3556,0.6222,0.5333,1.0667,0.5333c0.0889,0,0.2667,0,0.3556-0.0889c-0.1778,0.2667-0.2667,0.5333-0.2667,0.8
		c0,0.3556,0.1778,0.7111,0.3556,0.8889c0.2667,0.2667,0.5333,0.3556,0.8889,0.3556s0.7111-0.1778,0.8889-0.3556
		c0.2667-0.2667,0.3556-0.5333,0.3556-0.8889S22.5778,14.5778,22.4,14.4c-0.2667-0.2667-0.5333-0.3556-0.8889-0.3556
		c-0.0889,0-0.2667,0-0.3556,0.0889c0.3556-0.4444,0.3556-1.0667,0.0889-1.5111c-0.3556-0.4444-0.8889-0.7111-1.4222-0.5333
		c0.3556-0.4444,0.3556-1.0667,0.0889-1.5111c-0.3556-0.4444-0.8889-0.7111-1.4222-0.5333
		c0.3556-0.4444,0.3556-1.0667,0.0889-1.5111C18.2222,8.0889,17.6889,7.8222,17.1556,8c0.1778-0.2667,0.2667-0.5333,0.2667-0.8
		c0-0.3556-0.1778-0.7111-0.3556-0.8889C16.8,6.0444,16.5333,5.9556,16.1778,5.9556c-0.3556,0-0.7111,0.1778-0.8889,0.3556
		C15.0222,6.5778,14.9333,6.8444,14.9333,7.2c0,0.3556,0.1778,0.7111,0.3556,0.8889C15.5556,8.4444,15.8222,8.5333,16.1778,8.5333z"
		/>
	<path id="XMLID_22_" class="st0" d="M3.2,24.5333c0.3556,0,0.7111-0.1778,0.8889-0.3556c0,0,0-0.0889,0.0889-0.0889
		c0,0.5333,0.2667,1.0667,0.8,1.3333c0.5333,0.1778,1.1556,0.0889,1.5111-0.3556c0,0.5333,0.2667,1.0667,0.8,1.2444
		S8.4444,26.4,8.8,25.9556c0,0.5333,0.2667,1.0667,0.8,1.2444c0.1778,0.0889,0.3556,0.0889,0.5333,0.0889
		c0.3556,0,0.7111-0.1778,0.9778-0.4444v0.0889c0,0.3556,0.1778,0.7111,0.3556,0.8889c0.2667,0.2667,0.5333,0.3556,0.8889,0.3556
		c0.3556,0,0.7111-0.1778,0.8889-0.3556c0.2667-0.2667,0.3556-0.5333,0.3556-0.8889s-0.1778-0.7111-0.3556-0.8889
		c-0.2667-0.2667-0.5333-0.3556-0.8889-0.3556c-0.3556,0-0.7111,0.1778-0.8889,0.3556c0,0,0,0.0889-0.0889,0.0889
		c0-0.5333-0.2667-1.0667-0.8-1.3333c-0.5333-0.1778-1.1556-0.0889-1.5111,0.3556c0-0.5333-0.2667-1.0667-0.8-1.2444
		c-0.5333-0.1778-1.1556-0.0889-1.5111,0.3556c0-0.5333-0.2667-1.0667-0.8-1.2444C5.4222,22.8444,4.8,22.9333,4.4444,23.3778
		v-0.0889c0-0.3556-0.1778-0.7111-0.3556-0.8889C3.8222,22.1333,3.5556,22.0444,3.2,22.0444S2.4889,22.2222,2.3111,22.4
		c-0.2667,0.2667-0.3556,0.5333-0.3556,0.8889c0,0.3556,0.1778,0.7111,0.3556,0.8889C2.4889,24.3556,2.8444,24.5333,3.2,24.5333z"/>
	<path id="XMLID_21_" class="st0" d="M9.8667,42.7556c0.2667,0.2667,0.5333,0.3556,0.8889,0.3556s0.7111-0.1778,0.8889-0.3556
		C11.9111,42.4889,12,42.2222,12,41.8667s-0.1778-0.7111-0.3556-0.8889c-0.2667-0.2667-0.5333-0.3556-0.8889-0.3556
		S10.0444,40.8,9.8667,40.9778c-0.1778,0.1778-0.3556,0.4444-0.3556,0.8c-0.2667-0.4444-0.8-0.7111-1.3333-0.6222
		C7.6444,41.2444,7.2,41.6889,7.1111,42.2222c-0.2667-0.4444-0.8-0.7111-1.3333-0.6222C5.2444,41.6889,4.8,42.1333,4.7111,42.6667
		c-0.2667-0.4444-0.8-0.7111-1.3333-0.6222C2.8444,42.1333,2.4,42.5778,2.3111,43.1111c-0.0889-0.0889-0.0889-0.1778-0.1778-0.2667
		C1.8667,42.5778,1.6,42.4889,1.2444,42.4889s-0.7111,0.1778-0.8889,0.3556C0.0889,43.1111,0,43.3778,0,43.7333
		s0.1778,0.7111,0.3556,0.8889c0.2667,0.2667,0.5333,0.3556,0.8889,0.3556S1.9556,44.8,2.1333,44.6222
		c0.1778-0.1778,0.3556-0.4444,0.3556-0.8c0.2667,0.4444,0.6222,0.6222,1.1556,0.6222c0.0889,0,0.1778,0,0.2667,0
		c0.5333-0.0889,0.9778-0.5333,1.0667-1.0667c0.2667,0.4444,0.8,0.7111,1.3333,0.6222s0.9778-0.5333,1.0667-1.0667
		c0.2667,0.4444,0.8,0.7111,1.3333,0.6222c0.5333-0.0889,0.9778-0.5333,1.0667-1.1556C9.6889,42.5778,9.7778,42.6667,9.8667,42.7556
		z"/>
	<path id="XMLID_20_" class="st0" d="M17.7778,53.6889c-0.3556,0-0.7111,0.1778-0.8889,0.3556
		c-0.2667,0.2667-0.3556,0.5333-0.3556,0.8889c0,0.1778,0.0889,0.4444,0.1778,0.6222c-0.4444-0.2667-1.0667-0.1778-1.5111,0.2667
		c-0.4444,0.4444-0.4444,0.9778-0.2667,1.5111c-0.4444-0.2667-1.0667-0.1778-1.5111,0.2667
		c-0.4444,0.4444-0.4444,0.9778-0.2667,1.5111c-0.4444-0.2667-1.0667-0.1778-1.5111,0.2667
		C11.2,59.8222,11.2,60.3556,11.3778,60.8889C11.2,60.8,11.0222,60.7111,10.7556,60.7111c-0.3556,0-0.7111,0.1778-0.8889,0.3556
		C9.6889,61.2444,9.5111,61.6,9.5111,61.9556s0.1778,0.7111,0.3556,0.8889C10.1333,63.1111,10.4,63.2,10.7556,63.2
		s0.7111-0.1778,0.8889-0.3556C11.9111,62.5778,12,62.3111,12,61.9556c0-0.1778-0.0889-0.4444-0.1778-0.6222
		c0.1778,0.0889,0.3556,0.1778,0.6222,0.1778c0.3556,0,0.6222-0.0889,0.8889-0.3556c0.4444-0.4444,0.4444-0.9778,0.2667-1.5111
		c0.4444,0.2667,1.0667,0.1778,1.5111-0.2667c0.4444-0.4444,0.4444-0.9778,0.2667-1.5111c0.4444,0.2667,1.0667,0.1778,1.5111-0.2667
		c0.4444-0.4444,0.4444-0.9778,0.2667-1.5111c0.1778,0.0889,0.3556,0.1778,0.6222,0.1778c0.3556,0,0.7111-0.1778,0.8889-0.3556
		c0.2667-0.2667,0.3556-0.5333,0.3556-0.8889c0-0.3556-0.1778-0.7111-0.3556-0.8889
		C18.4889,53.7778,18.1333,53.6889,17.7778,53.6889z"/>
	<path id="XMLID_19_" class="st0" d="M50.2222,16.7111c0.3556,0,0.7111-0.1778,0.8889-0.3556
		c0.2667-0.2667,0.3556-0.5333,0.3556-0.8889c0-0.2667-0.0889-0.5333-0.2667-0.8c0.0889,0,0.2667,0.0889,0.3556,0.0889
		c0.4444,0,0.8-0.1778,1.0667-0.5333c0.3556-0.4444,0.2667-1.0667-0.0889-1.5111c0.5333,0.1778,1.0667-0.0889,1.4222-0.5333
		c0.3556-0.4444,0.2667-1.0667-0.0889-1.5111c0.5333,0.1778,1.0667-0.0889,1.4222-0.5333S55.5555,9.0667,55.2,8.6222
		c0.0889,0,0.2667,0.0889,0.3556,0.0889c0.3556,0,0.7111-0.1778,0.8889-0.3556C56.7111,8.0889,56.8,7.8222,56.8,7.4667
		s-0.1778-0.7111-0.3556-0.8889c-0.2667-0.2667-0.5333-0.3556-0.8889-0.3556S54.8444,6.4,54.6667,6.5778
		C54.4,6.8444,54.3111,7.1111,54.3111,7.4667c0,0.2667,0.0889,0.5333,0.2667,0.8C54.0444,8.0889,53.5111,8.3556,53.1556,8.8
		s-0.2667,1.0667,0.0889,1.5111c-0.5333-0.1778-1.0667,0.0889-1.4222,0.5333s-0.2667,1.0667,0.0889,1.5111
		c-0.5333-0.1778-1.0667,0.0889-1.4222,0.5333c-0.3556,0.4444-0.2667,1.0667,0.0889,1.5111c-0.0889,0-0.2667-0.0889-0.3556-0.0889
		c-0.3556,0-0.7111,0.1778-0.8889,0.3556c-0.2667,0.2667-0.3556,0.5333-0.3556,0.8889s0.1778,0.7111,0.3556,0.8889
		C49.5111,16.6222,49.8667,16.7111,50.2222,16.7111z"/>
	<path id="XMLID_18_" class="st0" d="M59.6444,28.2667c0.3556,0,0.7111-0.1778,0.8889-0.3556
		c0.2667-0.2667,0.3556-0.5333,0.3556-0.8889v-0.0889c0.2667,0.2667,0.6222,0.4444,0.9778,0.4444c0.1778,0,0.3556,0,0.5333-0.0889
		c0.5333-0.1778,0.8-0.7111,0.8-1.2444c0.3556,0.4444,0.9778,0.5333,1.5111,0.3556c0.5333-0.1778,0.8-0.7111,0.8-1.2444
		c0.3556,0.4444,0.9778,0.5333,1.5111,0.3556c0.5333-0.1778,0.8-0.7111,0.8-1.3333c0,0,0,0.0889,0.0889,0.0889
		c0.2667,0.2667,0.5333,0.3556,0.8889,0.3556s0.7111-0.1778,0.8889-0.3556c0.2667-0.2667,0.3556-0.5333,0.3556-0.8889
		s-0.1778-0.7111-0.3556-0.8889c-0.2667-0.2667-0.5333-0.3556-0.8889-0.3556s-0.7111,0.1778-0.8889,0.3556
		c-0.2667,0.2667-0.3556,0.5333-0.3556,0.8889v0.0889c-0.3556-0.4444-0.9778-0.5333-1.5111-0.3556s-0.8,0.7111-0.8,1.2444
		c-0.3556-0.4444-0.9778-0.5333-1.5111-0.3556c-0.5333,0.1778-0.8,0.7111-0.8,1.2444c-0.3556-0.4444-0.9778-0.5333-1.5111-0.3556
		c-0.5333,0.1778-0.8,0.7111-0.8,1.3333c0,0,0-0.0889-0.0889-0.0889c-0.2667-0.2667-0.5333-0.3556-0.8889-0.3556
		s-0.7111,0.1778-0.8889,0.3556C58.4889,26.4,58.4,26.6667,58.4,27.0222c0,0.3556,0.1778,0.7111,0.3556,0.8889
		C58.9333,28.0889,59.2889,28.2667,59.6444,28.2667z"/>
	<path id="XMLID_17_" class="st0" d="M71.5555,42.8444c-0.2667-0.2667-0.5333-0.3556-0.8889-0.3556
		c-0.3556,0-0.7111,0.1778-0.8889,0.3556C69.6889,42.9333,69.6,43.0222,69.6,43.1111c-0.0889-0.5333-0.4445-0.9778-1.0667-1.1556
		C68,41.8667,67.4667,42.1333,67.2,42.5778c-0.0889-0.5333-0.4444-0.9778-1.0667-1.0667C65.6,41.4222,65.0667,41.6889,64.8,42.1333
		c-0.0889-0.5333-0.4444-0.9778-1.0667-1.0667C63.2,40.9778,62.6667,41.2444,62.4,41.6889c0-0.2667-0.1778-0.5333-0.3556-0.8
		c-0.2667-0.2667-0.5333-0.3556-0.8889-0.3556s-0.7111,0.1778-0.8889,0.3556c-0.2667,0.2667-0.3556,0.5333-0.3556,0.8889
		s0.1778,0.7111,0.3556,0.8889c0.2667,0.2667,0.5333,0.3556,0.8889,0.3556s0.7111-0.1778,0.8889-0.3556
		c0.0889-0.0889,0.1778-0.1778,0.1778-0.2667c0.0889,0.5333,0.4444,0.9778,1.0667,1.1556c0.5333,0.0889,1.0667-0.1778,1.3333-0.6222
		c0.0889,0.5333,0.4444,0.9778,1.0667,1.0667c0.5333,0.0889,1.0667-0.1778,1.3333-0.6222c0.0889,0.5333,0.4444,0.9778,1.0667,1.0667
		c0.0889,0,0.1778,0,0.2667,0c0.4444,0,0.8889-0.2667,1.1556-0.6222c0,0.2667,0.1778,0.5333,0.3556,0.8
		c0.2667,0.2667,0.5333,0.3556,0.8889,0.3556s0.7111-0.1778,0.8889-0.3556C71.9111,44.3556,72,44.0889,72,43.7333
		C71.9111,43.4667,71.8222,43.1111,71.5555,42.8444z"/>
	<path id="XMLID_16_" class="st0" d="M60.9778,60.6222c-0.1778,0-0.4444,0.0889-0.6222,0.1778
		c0.2667-0.4444,0.1778-1.0667-0.2667-1.5111c-0.4444-0.4444-0.9778-0.4444-1.5111-0.2667
		c0.2667-0.4444,0.1778-1.0667-0.2667-1.5111c-0.4444-0.4444-0.9778-0.4444-1.5111-0.2667
		c0.2667-0.4444,0.1778-1.0667-0.2667-1.5111c-0.4444-0.4444-0.9778-0.4444-1.5111-0.2667
		c0.0889-0.1778,0.1778-0.3556,0.1778-0.6222c0-0.3556-0.1778-0.7111-0.3556-0.8889C54.5778,53.6889,54.3111,53.6,53.9555,53.6
		s-0.7111,0.1778-0.8889,0.3556c-0.2667,0.2667-0.3556,0.5333-0.3556,0.8889s0.1778,0.7111,0.3556,0.8889
		C53.3333,56,53.6,56.0889,53.9555,56.0889c0.1778,0,0.4444-0.0889,0.6222-0.1778c-0.2667,0.4444-0.1778,1.0667,0.2667,1.5111
		c0.4444,0.4444,0.9778,0.4444,1.5111,0.2667c-0.2667,0.4444-0.1778,1.0667,0.2667,1.5111
		c0.4444,0.4444,0.9778,0.4444,1.5111,0.2667c-0.2667,0.4444-0.1778,1.0667,0.2667,1.5111
		c0.2667,0.2667,0.6222,0.3556,0.8889,0.3556c0.1778,0,0.4444-0.0889,0.6222-0.1778c-0.0889,0.1778-0.1778,0.3556-0.1778,0.6222
		c0,0.3556,0.1778,0.7111,0.3556,0.8889c0.2667,0.2667,0.5333,0.3556,0.8889,0.3556s0.7111-0.1778,0.8889-0.3556
		c0.2667-0.2667,0.3556-0.5333,0.3556-0.8889c0-0.3556-0.1778-0.7111-0.3556-0.8889C61.6,60.7111,61.2444,60.6222,60.9778,60.6222z"
		/>
</g>
</svg>
