<!-- Generator: Adobe Illustrator 19.0.0, SVG Export Plug-In  -->
<svg version="1.1"
	 xmlns="http://www.w3.org/2000/svg" xmlns:xlink="http://www.w3.org/1999/xlink" xmlns:a="http://ns.adobe.com/AdobeSVGViewerExtensions/3.0/"
	 x="0px" y="0px" width="72px" height="78.3881px" viewBox="0 0 72 78.3881" style="enable-background:new 0 0 72 78.3881;"
	 xml:space="preserve">
<style type="text/css">
	.st0{fill:#F7941E;}
</style>
<defs>
</defs>
<g id="XMLID_15_">
	<path id="XMLID_16_" class="st0" d="M22.8014,28.477L49.5135,1.7649c2.3862-2.3862,6.1643-2.3199,8.4842,0s2.3199,6.1643,0,8.4842
		L45.1388,23.108c1.0605,0.2651,2.1211,0.7954,2.9165,1.5908c1.9885,1.9885,2.3199,5.1038,0.8617,7.3574
		c1.1268,0.1988,2.2536,0.7954,3.1153,1.6571s1.3919,1.9222,1.6571,2.9827l8.0865-8.0865c2.3199-2.3199,6.1643-2.3199,8.4842,0
		s2.3199,6.1643,0,8.4842L44.9399,62.4139c-8.5505,8.5505-13.7206,10.8041-17.4325,12.3949
		c-2.1211,0.928-3.7119,1.5908-5.3026,3.1816c-0.5303,0.5303-1.4582,0.5303-1.9885,0c-0.5303-0.5303-0.5303-1.4582,0-1.9885
		c1.9885-1.9885,3.9107-2.8502,6.1643-3.7781c3.513-1.5245,8.4179-3.6456,16.5708-11.7984l25.3201-25.3201
		c1.2594-1.2594,1.2594-3.2479,0-4.5073c-1.2594-1.2594-3.1153-1.1268-4.3747,0.1326L41.9572,52.6703
		c-2.3862,2.3862-6.1643,2.3199-8.4842,0s-2.3199-6.1643,0-8.4842l0.464-0.464c-2.6513,0.2651-5.5015-0.7291-8.7494-2.5188
		l-1.6571,1.6571c3.8444,5.4352-0.6628,12.9915-0.8617,13.3229c-0.3977,0.6628-1.2594,0.8617-1.9222,0.464
		c-0.6628-0.3977-0.8617-1.2594-0.464-1.9222c0.0663-0.0663,4.2421-7.026,0.3314-10.9367c-0.5303-0.5303-0.5303-1.4582,0-1.9885
		l3.3142-3.3142c0.464-0.464,1.1268-0.5965,1.6571-0.1989c3.1816,1.7234,6.4295,3.2479,8.8819,2.5188
		c1.3257-0.3977,2.5188-1.4582,3.5793-3.1816l-10.8041-6.4295c-0.3977-0.1326-1.7896-0.1988-3.513,0.1988c0,0,0,0-0.0663,0.0663
		c-2.3862,0.5303-5.4352,1.7234-8.0865,4.2421C7.4237,43.8546,6.3632,48.4944,5.5015,52.14
		c-0.5303,2.2536-1.0605,4.3747-3.1153,6.4295c-0.5303,0.5303-1.4582,0.5303-1.9885,0c-0.5303-0.5303-0.5303-1.4582,0-1.9885
		c1.5245-1.5245,1.8559-2.9165,2.3199-5.1038c0.928-3.8444,2.1873-9.0808,10.8704-17.7639
		C16.4382,30.7306,19.8186,29.2061,22.8014,28.477z M35.4614,46.042c-1.2594,1.2594-1.2594,3.2479,0,4.5073
		c1.2594,1.2594,3.2479,1.2594,4.5073,0l10.2076-10.2076c1.2594-1.2594,1.2594-3.2479,0-4.5073
		c-1.2594-1.2594-3.2479-1.2594-4.5073,0l-7.026,7.026L35.4614,46.042z M40.6978,35.7681c0.2651,0.1326,0.464,0.3314,0.5303,0.5303
		l2.4525-2.4525l2.5188-2.5188c1.2594-1.2594,1.2594-3.2479,0-4.5073c-1.2594-1.2594-3.2479-1.2594-4.5073,0l-5.8992,5.8992
		L40.6978,35.7681z M28.7006,28.5432l4.5073,2.6513l6.4295-6.4295L56.0755,8.3269c1.2594-1.2594,1.2594-3.2479,0-4.5073
		s-3.2479-1.2594-4.5073,0L27.2423,28.1455C27.8389,28.2118,28.3692,28.3444,28.7006,28.5432z"/>
</g>
</svg>
