<!-- Generator: Adobe Illustrator 19.0.0, SVG Export Plug-In  -->
<svg version="1.1"
	 xmlns="http://www.w3.org/2000/svg" xmlns:xlink="http://www.w3.org/1999/xlink" xmlns:a="http://ns.adobe.com/AdobeSVGViewerExtensions/3.0/"
	 x="0px" y="0px" width="72px" height="64.82px" viewBox="0 0 72 64.82" style="enable-background:new 0 0 72 64.82;"
	 xml:space="preserve">
<style type="text/css">
	.st0{fill:#2B3990;}
</style>
<defs>
</defs>
<g id="XMLID_15_">
	<path id="XMLID_29_" class="st0" d="M20,52.82c-0.64,0-1.2-0.56-1.2-1.2v-30.4c0-0.64,0.56-1.2,1.2-1.2s1.2,0.56,1.2,1.2v30.4
		C21.2,52.26,20.64,52.82,20,52.82z"/>
	<path id="XMLID_28_" class="st0" d="M12,52.82c-0.64,0-1.2-0.56-1.2-1.2v-30.4c0-0.64,0.56-1.2,1.2-1.2s1.2,0.56,1.2,1.2v30.4
		C13.2,52.26,12.64,52.82,12,52.82z"/>
	<path id="XMLID_27_" class="st0" d="M52,52.82c-0.64,0-1.2-0.56-1.2-1.2v-30.4c0-0.64,0.56-1.2,1.2-1.2s1.2,0.56,1.2,1.2v30.4
		C53.2,52.26,52.64,52.82,52,52.82z"/>
	<path id="XMLID_26_" class="st0" d="M60,52.82c-0.64,0-1.2-0.56-1.2-1.2v-30.4c0-0.64,0.56-1.2,1.2-1.2s1.2,0.56,1.2,1.2v30.4
		C61.2,52.26,60.64,52.82,60,52.82z"/>
	<path id="XMLID_23_" class="st0" d="M62.8,18.42L62.8,18.42H9.2c-0.56,0-1.04-0.4-1.12-0.88c-0.16-0.56,0.08-1.04,0.56-1.36
		l26.8-16c0.4-0.24,0.88-0.24,1.2,0L63.36,16.1c0.4,0.16,0.72,0.64,0.72,1.12C64,17.86,63.44,18.42,62.8,18.42z M13.52,16.02H58.4
		L36,2.58L13.52,16.02z"/>
	<path id="XMLID_22_" class="st0" d="M62.8,56.82H9.2c-0.64,0-1.2-0.56-1.2-1.2c0-0.64,0.56-1.2,1.2-1.2h53.6
		c0.64,0,1.2,0.56,1.2,1.2C64,56.26,63.44,56.82,62.8,56.82z"/>
	<path id="XMLID_21_" class="st0" d="M66.8,60.82H5.2c-0.64,0-1.2-0.56-1.2-1.2c0-0.64,0.56-1.2,1.2-1.2h61.6
		c0.64,0,1.2,0.56,1.2,1.2C68,60.26,67.44,60.82,66.8,60.82z"/>
	<path id="XMLID_20_" class="st0" d="M70.8,64.82H1.2c-0.64,0-1.2-0.56-1.2-1.2c0-0.64,0.56-1.2,1.2-1.2h69.6
		c0.64,0,1.2,0.56,1.2,1.2C72,64.26,71.44,64.82,70.8,64.82z"/>
	<g id="XMLID_18_">
		<path id="XMLID_19_" class="st0" d="M43.2,40.82H28.8c-0.64,0-1.2-0.56-1.2-1.2s0.56-1.2,1.2-1.2h14.4c0.64,0,1.2,0.56,1.2,1.2
			S43.84,40.82,43.2,40.82z"/>
	</g>
	<g id="XMLID_16_">
		<path id="XMLID_17_" class="st0" d="M43.2,34.42H28.8c-0.64,0-1.2-0.56-1.2-1.2s0.56-1.2,1.2-1.2h14.4c0.64,0,1.2,0.56,1.2,1.2
			S43.84,34.42,43.2,34.42z"/>
	</g>
</g>
</svg>
