<!-- Generator: Adobe Illustrator 19.0.0, SVG Export Plug-In  -->
<svg version="1.1"
	 xmlns="http://www.w3.org/2000/svg" xmlns:xlink="http://www.w3.org/1999/xlink" xmlns:a="http://ns.adobe.com/AdobeSVGViewerExtensions/3.0/"
	 x="0px" y="0px" width="72px" height="71.9103px" viewBox="0 0 72 71.9103" style="enable-background:new 0 0 72 71.9103;"
	 xml:space="preserve">
<style type="text/css">
	.st0{fill:#FFFFFF;}
</style>
<defs>
</defs>
<g id="XMLID_15_">
	<g id="XMLID_17_">
		<path id="XMLID_21_" class="st0" d="M35.9551,0C16.1395,0,0,16.1395,0,35.9552c0,19.8157,16.1395,35.9551,35.9551,35.9551
			C55.8605,71.9103,72,55.7709,72,35.9552C72,16.1395,55.8605,0,35.9551,0z M35.9551,67.4272
			c-17.3051,0-31.472-14.1669-31.472-31.472S18.65,4.4832,35.9551,4.4832s31.472,14.1669,31.472,31.472
			S53.2603,67.4272,35.9551,67.4272z"/>
		<path id="XMLID_18_" class="st0" d="M56.045,16.0448H44.8318l-8.9664-9.1974l-8.4284,8.1974H15.045v11.944l-8.4732,8.6974
			l8.4732,8.3125v12.0461h12.0971l8.2751,8.2043l8.0698-8.2043H56.045V44.4733l8.6077-8.6974l-8.6077-8.5181V16.0448z
			 M31.045,44.3835v-5.3387h-4.5046l3.7659-3.5897l-3.6141-3.4103h5.3528v-5.056l3.4103,3.4969l3.5897-3.6762v5.2353h5.4922
			l-3.3816,3.4103l3.6141,3.5897H39.045v5.221l-3.9552-3.6481L31.045,44.3835z"/>
	</g>
</g>
</svg>
