<!-- Generator: Adobe Illustrator 19.0.0, SVG Export Plug-In  -->
<svg version="1.1"
	 xmlns="http://www.w3.org/2000/svg" xmlns:xlink="http://www.w3.org/1999/xlink" xmlns:a="http://ns.adobe.com/AdobeSVGViewerExtensions/3.0/"
	 x="0px" y="0px" width="407.3634px" height="411.4479px" viewBox="0 0 407.3634 411.4479"
	 style="enable-background:new 0 0 407.3634 411.4479;" xml:space="preserve">
<style type="text/css">
	.st0{opacity:0.8;fill:#E30016;}
	.st1{opacity:0.8;fill:#F7941E;}
	.st2{opacity:0.8;fill:#B1B3B4;}
	.st3{opacity:0.8;fill:#D7B369;}
	.st4{opacity:0.8;fill:#ECECED;}
	.st5{opacity:0.8;fill:#2B3990;}
	.st6{opacity:0.8;fill:#2BB673;}
	.st7{opacity:0.8;fill:#F9ED32;}
</style>
<defs>
</defs>
<g id="XMLID_15_">
	
		<rect id="XMLID_23_" x="260.4024" y="95.1164" transform="matrix(0.3992 -0.9169 0.9169 0.3992 48.8048 392.2014)" class="st0" width="126.5237" height="127.4895"/>
	
		<rect id="XMLID_22_" x="254.5632" y="195.5434" transform="matrix(0.9306 -0.366 0.366 0.9306 -72.8767 134.4352)" class="st1" width="127.0277" height="127.7107"/>
	
		<rect id="XMLID_21_" x="21.2225" y="87.1385" transform="matrix(0.9306 -0.366 0.366 0.9306 -49.5387 41.396)" class="st2" width="126.3448" height="128.3936"/>
	
		<rect id="XMLID_20_" x="86.9384" y="260.145" transform="matrix(0.9306 -0.366 0.366 0.9306 -108.1816 77.435)" class="st3" width="126.3448" height="127.7106"/>
	
		<rect id="XMLID_19_" x="192.163" y="23.5685" transform="matrix(0.9306 -0.366 0.366 0.9306 -14.405 99.5566)" class="st4" width="126.3448" height="128.3936"/>
	<polygon id="XMLID_18_" class="st5" points="122.1062,0 71.3487,115.3698 189.125,166.6485 238.9971,50.8931 	"/>
	<polygon id="XMLID_17_" class="st6" points="50.7576,167.502 0,282.8717 117.7764,334.1504 167.6484,218.3951 	"/>
	<polygon id="XMLID_16_" class="st7" points="216.1962,244.7994 166.3242,360.5547 283.215,411.4479 333.7226,295.4426 	"/>
</g>
</svg>
