<!-- Generator: Adobe Illustrator 19.0.0, SVG Export Plug-In  -->
<svg version="1.1"
	 xmlns="http://www.w3.org/2000/svg" xmlns:xlink="http://www.w3.org/1999/xlink" xmlns:a="http://ns.adobe.com/AdobeSVGViewerExtensions/3.0/"
	 x="0px" y="0px" width="72.1132px" height="72.1367px" viewBox="0 0 72.1132 72.1367"
	 style="enable-background:new 0 0 72.1132 72.1367;" xml:space="preserve">
<style type="text/css">
	.st0{fill-rule:evenodd;clip-rule:evenodd;fill:#5AA16E;}
	.st1{fill-rule:evenodd;clip-rule:evenodd;fill:#ECECED;}
	.st2{fill:none;stroke:#FFFFFF;stroke-width:0.2264;stroke-miterlimit:7.6613;}
	.st3{fill-rule:evenodd;clip-rule:evenodd;fill:#B1B3B4;}
	.st4{fill-rule:evenodd;clip-rule:evenodd;fill:#E30016;}
	.st5{fill:none;stroke:#E30016;stroke-width:0.2264;stroke-miterlimit:7.6613;}
	.st6{opacity:0.8;fill:#E30016;}
	.st7{opacity:0.8;fill:#F7941E;}
	.st8{opacity:0.8;fill:#B1B3B4;}
	.st9{opacity:0.8;fill:#D7B369;}
	.st10{opacity:0.8;fill:#ECECED;}
	.st11{opacity:0.8;fill:#2B3990;}
	.st12{opacity:0.8;fill:#2BB673;}
	.st13{opacity:0.8;fill:#F9ED32;}
</style>
<defs>
</defs>
<g id="XMLID_30_">
	<path id="XMLID_44_" class="st0" d="M4.4832,36.0684H0C0,16.2527,16.1395,0.1132,35.9552,0.1132v4.4832
		C18.6501,4.5964,4.4832,18.7633,4.4832,36.0684z"/>
	<path id="XMLID_43_" class="st1" d="M72,36.0684h-4.5729c0-17.3051-14.1669-31.472-31.472-31.472V0.1132
		C55.8605,0.1132,72,16.2527,72,36.0684z"/>
	<path id="XMLID_42_" class="st2" d="M72,36.0684h-4.5729c0-17.3051-14.1669-31.472-31.472-31.472V0.1132
		C55.8605,0.1132,72,16.2527,72,36.0684z"/>
	<path id="XMLID_41_" class="st3" d="M35.9552,72.0235C16.1395,72.0235,0,55.8841,0,36.0684h4.4832
		c0,17.3051,14.1669,31.472,31.472,31.472V72.0235z"/>
	<path id="XMLID_40_" class="st4" d="M35.9552,72.0235v-4.4832c17.3051,0,31.472-14.1669,31.472-31.472H72
		C72,55.8841,55.8605,72.0235,35.9552,72.0235z"/>
	<path id="XMLID_39_" class="st5" d="M35.9552,72.0235v-4.4832c17.3051,0,31.472-14.1669,31.472-31.472H72
		C72,55.8841,55.8605,72.0235,35.9552,72.0235z"/>
	
		<rect id="XMLID_38_" x="27.515" y="10.4391" transform="matrix(-0.7071 -0.7071 0.7071 -0.7071 47.8504 57.4365)" class="st6" width="16.6113" height="16.7381"/>
	<rect id="XMLID_37_" x="39.4521" y="15.9837" class="st7" width="16.7671" height="16.6775"/>
	<rect id="XMLID_36_" x="14.9738" y="39.3859" class="st8" width="16.8568" height="16.5878"/>
	<rect id="XMLID_35_" x="39.2727" y="39.6549" class="st9" width="16.7671" height="16.5878"/>
	<rect id="XMLID_34_" x="15.4222" y="15.4457" class="st10" width="16.8568" height="16.5878"/>
	<polygon id="XMLID_33_" class="st11" points="6.7248,35.7994 18.3811,47.5453 30.3064,35.6201 18.5604,23.9638 	"/>
	<polygon id="XMLID_32_" class="st12" points="23.7609,52.5665 35.4172,64.3125 47.3425,52.3872 35.5965,40.7309 	"/>
	<polygon id="XMLID_31_" class="st13" points="41.1557,36.0684 52.9016,47.7247 64.7372,35.889 52.9913,24.1431 	"/>
</g>
</svg>
